<?xml version="1.0" standalone="no"?>
<!DOCTYPE svg PUBLIC "-//W3C//DTD SVG 20010904//EN"
 "http://www.w3.org/TR/2001/REC-SVG-20010904/DTD/svg10.dtd">
<svg version="1.0" xmlns="http://www.w3.org/2000/svg"
 width="50" height="39" viewBox="0 0 396.000000 400.000000"
 preserveAspectRatio="xMidYMid meet">
<metadata>
Created by potrace 1.15, written by Peter Selinger 2001-2017
</metadata>
<g transform="translate(0.000000,400.000000) scale(0.100000,-0.100000)"
fill="#8f40a6" stroke="none">
<path d="M0 3795 l0 -205 239 0 239 0 6 -27 c15 -78 20 -109 17 -121 -1 -7 3
-28 8 -45 6 -18 11 -48 13 -67 1 -19 5 -40 10 -46 4 -6 8 -34 9 -63 1 -28 6
-54 11 -57 4 -3 8 -25 8 -50 0 -25 4 -53 9 -62 5 -9 10 -35 12 -57 1 -22 6
-44 10 -50 4 -5 10 -32 13 -60 14 -124 19 -151 27 -160 5 -5 9 -33 9 -62 0
-29 4 -53 9 -53 5 0 12 -25 15 -55 3 -30 9 -80 12 -110 3 -30 10 -55 15 -55 5
0 9 -24 9 -54 0 -30 5 -58 10 -61 6 -3 10 -28 10 -56 0 -27 5 -49 10 -49 6 0
10 -27 10 -61 0 -37 4 -58 10 -54 6 4 10 -15 10 -49 0 -31 5 -56 10 -56 6 0
10 -26 10 -59 0 -33 5 -63 10 -66 6 -3 10 -33 10 -66 0 -32 1 -60 3 -61 1 -2
598 -5 1327 -8 729 -3 1333 -8 1342 -11 24 -7 58 -45 58 -64 0 -8 5 -15 10
-15 23 0 6 -72 -25 -105 -34 -35 -32 -35 -1345 -38 l-1285 -2 0 -215 0 -215
1313 -3 c873 -1 1312 1 1312 8 0 5 18 10 40 10 22 0 40 5 40 10 0 6 14 10 30
10 17 0 30 5 30 10 0 6 9 10 20 10 11 0 20 5 20 10 0 6 8 10 18 10 10 0 24 9
32 20 8 11 20 20 27 20 17 0 103 86 103 103 0 7 9 19 20 27 11 8 20 22 20 32
0 10 5 18 10 18 6 0 10 9 10 19 0 11 6 21 13 24 9 3 12 52 12 202 0 150 -3
199 -12 203 -7 2 -13 12 -13 23 0 10 -4 19 -10 19 -5 0 -10 9 -10 20 0 11 -4
20 -10 20 -5 0 -10 7 -10 15 0 20 -145 165 -165 165 -8 0 -15 5 -15 10 0 6 -9
10 -20 10 -11 0 -20 5 -20 10 0 6 -8 10 -18 10 -10 0 -23 5 -30 12 -14 14 -16
68 -2 68 6 0 10 18 10 40 0 22 5 40 10 40 6 0 10 18 10 40 0 22 5 40 10 40 6
0 10 14 10 30 0 17 5 30 10 30 6 0 10 18 10 39 0 22 5 43 10 46 6 3 10 22 10
41 0 19 5 34 10 34 6 0 10 15 10 34 0 19 5 38 10 41 6 3 10 19 10 36 0 16 5
29 10 29 6 0 10 15 10 34 0 19 5 38 10 41 5 3 10 22 10 41 0 19 5 34 10 34 6
0 10 15 10 34 0 19 5 38 10 41 6 3 10 22 10 41 0 19 4 33 8 30 4 -2 9 12 10
32 2 20 7 39 12 40 6 2 10 21 10 43 0 21 5 39 10 39 6 0 10 13 10 29 0 17 5
33 10 36 6 3 10 22 10 41 0 19 5 34 10 34 6 0 10 18 10 40 l0 40 -1485 0
-1485 0 0 24 c0 14 -4 28 -10 31 -6 3 -10 26 -10 50 0 24 -4 47 -10 50 -5 3
-10 31 -10 61 0 30 -4 54 -10 54 -6 0 -10 27 -10 60 0 33 -4 60 -10 60 -5 0
-10 23 -10 50 0 28 -4 50 -10 50 -6 0 -10 27 -10 60 0 33 -4 60 -10 60 -5 0
-10 11 -10 25 l0 25 -420 0 -420 0 0 -205z"/>
<path d="M1320 850 c0 -5 -15 -10 -34 -10 -19 0 -38 -4 -41 -10 -3 -5 -15 -10
-26 -10 -10 0 -19 -4 -19 -10 0 -5 -6 -10 -14 -10 -15 0 -126 -103 -126 -117
0 -5 -8 -18 -17 -29 -27 -30 -43 -62 -43 -83 0 -11 -4 -23 -10 -26 -6 -4 -10
-55 -10 -121 0 -69 4 -114 10 -114 6 0 10 -13 10 -30 0 -16 5 -30 10 -30 6 0
10 -9 10 -20 0 -11 5 -20 10 -20 6 0 10 -8 10 -18 0 -10 9 -24 20 -32 11 -8
20 -20 20 -28 0 -16 24 -42 39 -42 6 0 25 -14 43 -30 17 -17 37 -30 44 -30 7
0 14 -6 16 -12 6 -19 379 -19 385 0 3 6 13 12 23 12 10 0 20 4 22 9 2 5 9 11
17 13 19 4 121 104 121 118 0 6 9 20 20 32 11 12 20 32 20 45 0 13 5 23 10 23
6 0 10 18 10 39 0 22 5 43 10 46 13 8 13 118 1 130 -6 6 -11 29 -12 53 -2 23
-7 42 -11 42 -4 0 -8 7 -8 15 0 19 -20 55 -42 76 -10 9 -18 22 -18 28 0 15
-46 61 -61 61 -6 0 -24 14 -39 30 -17 18 -38 30 -54 30 -14 0 -26 5 -26 10 0
6 -13 10 -30 10 -16 0 -30 5 -30 10 0 6 -42 10 -105 10 -63 0 -105 -4 -105
-10z"/>
<path d="M2820 850 c0 -5 -13 -10 -30 -10 -16 0 -30 -4 -30 -10 0 -5 -9 -10
-20 -10 -11 0 -20 -4 -20 -10 0 -5 -7 -10 -16 -10 -9 0 -29 -13 -44 -30 -15
-16 -34 -30 -42 -30 -8 0 -21 -12 -29 -27 -8 -16 -22 -35 -31 -44 -10 -9 -18
-24 -18 -33 0 -9 -4 -16 -10 -16 -5 0 -10 -11 -10 -24 0 -14 -4 -27 -9 -30 -5
-3 -12 -24 -15 -46 -3 -22 -9 -58 -12 -80 -4 -26 -2 -40 5 -40 6 0 11 -19 11
-45 0 -48 20 -125 32 -125 5 0 8 -9 8 -20 0 -11 5 -20 10 -20 6 0 10 -6 10
-14 0 -18 108 -126 126 -126 8 0 14 -4 14 -10 0 -5 6 -10 13 -10 8 0 28 -7 46
-16 27 -13 59 -15 194 -12 153 5 217 16 217 41 0 4 4 7 10 7 5 0 29 18 52 40
24 22 46 40 50 40 5 0 8 6 8 13 0 7 9 23 20 35 11 12 20 28 20 37 0 8 5 25 12
38 6 12 15 30 20 39 12 25 10 245 -2 253 -5 3 -10 19 -10 36 0 16 -4 29 -8 29
-5 0 -15 16 -22 36 -8 20 -24 42 -34 50 -11 8 -17 14 -13 14 4 0 -7 15 -25 33
-38 37 -102 77 -124 77 -8 0 -12 5 -9 10 4 6 -7 10 -24 10 -17 0 -31 5 -31 10
0 6 -47 10 -120 10 -73 0 -120 -4 -120 -10z"/>
</g>
</svg>
